# Blender v2.79 (sub 0) OBJ File: ''
# www.blender.org
mtllib amk_bldg_1351_sp_station_building.mtl
o polygon.757
v -708.750977 217.944000 13.434071
v -708.750977 217.944000 12.478070
v -708.169983 219.667999 12.478072
v -708.062988 219.632004 13.434072
v -708.169983 219.667999 13.434072
v -714.331970 206.748001 13.435067
v -714.392029 206.572998 13.435067
v -713.252991 205.488007 13.437067
v -713.280029 205.406998 13.437067
v -711.364014 215.500000 13.438070
v -702.382019 202.587006 13.453067
v -692.437012 209.082001 13.466068
v -748.568970 209.876999 14.254068
v -741.721008 229.860001 8.803075
v -702.612976 201.869003 8.864065
v -702.612000 201.869003 8.364065
v -709.726990 214.692993 13.443070
v -698.130005 211.013000 10.353068
v -692.429993 209.080994 8.877069
v -695.387024 200.266006 13.463065
v -719.036987 222.210007 14.396072
v -692.429016 209.080994 8.377069
v -695.380981 200.264999 8.874064
v -695.380005 200.264999 8.374064
v -713.273010 205.406998 8.848066
v -713.885010 203.578003 8.347068
v -709.651001 214.919006 13.440070
v -707.606018 221.013000 13.445072
v -696.015991 217.119003 8.871071
v -698.200989 210.820999 13.460069
v -709.645020 214.919006 8.852072
v -709.643982 214.919006 8.352072
v -707.598999 221.013000 8.354073
v -696.015015 217.119003 8.371071
v -748.559998 209.876007 8.297069
v -709.489990 216.729004 14.129070
v -713.893005 203.578995 14.277067
v -748.560974 209.876007 8.797069
v -747.705017 209.725006 13.098068
v -745.599976 209.343002 13.098068
v -702.374023 202.585999 8.364067
v -713.271973 205.406998 8.348066
v -719.640991 220.231003 8.337072
v -698.127014 211.013000 8.369069
v -747.724976 209.613998 13.098068
v -745.620972 209.231995 13.098068
v -745.620972 209.231995 14.208070
v -708.643982 217.908005 13.434071
v -708.062988 219.632004 12.478072
v -696.021973 217.119995 13.462070
v -714.630005 205.854996 13.435067
v -702.619995 201.869003 13.452065
v -741.729004 229.860992 14.155074
v -708.643982 217.908005 12.478070
v -710.043030 215.054001 8.851070
v -709.481018 216.727997 8.352072
v -698.200989 210.820999 13.457068
v -710.049011 215.054001 13.440070
v -702.375000 202.585999 8.864067
v -709.726990 214.692993 13.440070
v -707.599976 221.013000 8.854073
v -698.133972 211.014008 13.457068
v -698.127991 211.013000 8.869069
v -741.719971 229.860001 8.303075
v -719.642029 220.231003 8.837072
v -719.028992 222.209000 8.837072
v -719.650024 220.231995 14.453073
v -713.885986 203.578003 8.847068
v -709.481995 216.727997 8.852072
v -747.705017 209.725006 14.208070
v -719.028015 222.209000 8.337072
v -710.041992 215.054001 8.351070
v -745.599976 209.343002 14.208070
v -747.724976 209.613998 14.208070
vt 0.967817 0.782004
vt 0.950968 0.798853
vt 0.950968 0.782004
vt 0.934119 0.782004
vt 0.917270 0.798853
vt 0.917270 0.782004
vt 0.859730 0.761935
vt 0.667229 0.862417
vt 0.667229 0.761935
vt 0.950968 0.782064
vt 0.934119 0.798913
vt 0.934119 0.782064
vt 0.950968 0.815701
vt 0.934119 0.815701
vt 0.934119 0.798853
vt 0.227893 0.709700
vt 0.227527 0.788938
vt 0.083004 0.788314
vt 0.248860 0.898149
vt 0.231881 0.905989
vt 0.098454 0.896903
vt 0.248820 0.907187
vt 0.231913 0.907054
vt 0.667229 0.862417
vt 0.859730 0.761935
vt 0.859730 0.862417
vt 0.924439 0.937644
vt 0.945945 0.884218
vt 0.945946 0.934242
vt 0.925152 0.887619
vt 0.924437 0.887619
vt 0.887421 0.890321
vt 0.888025 0.890321
vt 0.888024 0.940345
vt 0.901935 0.939145
vt 0.925155 0.937644
vt -102.400002 0.000000
vt -102.400002 0.000000
vt -102.400002 0.000000
vt 0.274738 0.114267
vt 0.014225 0.113919
vt 0.014379 0.007480
vt 0.836170 0.140854
vt 0.543032 0.175859
vt 0.402784 0.141460
vt 0.402946 0.248395
vt 0.793530 0.696568
vt 0.251456 0.702023
vt 0.251278 0.576188
vt 0.895284 0.941646
vt 0.895854 0.890821
vt 0.895854 0.940846
vt 0.889328 0.891321
vt 0.895284 0.891621
vt 0.898918 0.889120
vt 0.899147 0.889020
vt 0.899147 0.939045
vt 0.879795 0.888620
vt 0.882011 0.888720
vt 0.882010 0.938745
vt 0.960566 0.883617
vt 0.995851 0.888620
vt 0.995851 0.938644
vt 1.033430 0.248213
vt 0.838734 0.248330
vt 0.838689 0.140286
vt 0.396034 0.248499
vt 0.246722 0.248383
vt 0.246738 0.176654
vt 0.900710 0.941046
vt 0.907148 0.889320
vt 0.907148 0.939345
vt 0.900710 0.891021
vt 0.960566 0.933642
vt 0.877732 0.545991
vt 0.837308 0.547104
vt 0.837335 0.425506
vt 0.561637 0.425336
vt 0.561585 0.531236
vt 0.517122 0.425313
vt 0.517092 0.550620
vt 0.563546 0.531237
vt 0.796362 0.531305
vt 0.859730 0.901580
vt 0.667229 0.973974
vt 0.667229 0.901580
vt 0.927007 0.970926
vt 0.905911 0.978080
vt 0.913691 0.993517
vt 0.923262 0.959762
vt 0.902043 0.966895
vt 0.934119 0.782004
vt 0.917270 0.798853
vt 0.917270 0.782004
vt 0.967817 0.782004
vt 0.950968 0.798853
vt 0.950968 0.782004
vt 0.667229 0.973974
vt 0.859730 0.901580
vt 0.859730 0.973974
vt 0.950968 0.798913
vt 0.934119 0.798913
vt 0.934119 0.782064
vt 0.934119 0.815701
vt 0.934119 0.798853
vt 0.967817 0.798853
vt 0.859730 0.862417
vt 0.950968 0.798913
vt 0.082636 0.709090
vt 0.248883 0.898181
vt 0.098477 0.896983
vt 0.248878 0.895982
vt 0.248782 0.907140
vt 0.098413 0.906011
vt 0.011486 0.785782
vt 0.249039 0.786135
vt 0.010878 0.896280
vt 0.360406 0.764661
vt 0.231790 0.929954
vt 0.232666 0.765123
vt 0.361093 0.740057
vt 0.645733 0.740972
vt 0.646075 0.992035
vt 0.667229 0.761935
vt 0.887421 0.940345
vt 0.901935 0.889120
vt -102.400002 0.000000
vt 0.029911 0.142239
vt 0.029882 0.248519
vt 0.012364 0.248496
vt 0.012415 0.142239
vt 0.274892 0.007851
vt 0.836302 0.247789
vt 0.245525 0.142227
vt 0.245497 0.248460
vt 0.030288 0.248391
vt 0.030310 0.142158
vt 0.793351 0.575419
vt 0.889328 0.941346
vt 0.898918 0.939145
vt 0.879794 0.938644
vt 1.033385 0.140239
vt -13.076358 7.145669
vt -12.137630 7.145669
vt -12.137630 7.157480
vt -13.052018 5.205141
vt -12.113292 5.216965
vt -38.359005 5.224848
vt 0.541790 0.140851
vt 0.826698 0.140454
vt 0.826831 0.247485
vt 0.541929 0.247881
vt 13.013059 7.224410
vt 13.013059 7.212598
vt 13.817384 7.212598
vt 12.918915 0.810621
vt 13.723239 0.798779
vt 39.160023 0.818515
vt 0.246745 0.142355
vt 0.396057 0.142401
vt 0.275440 0.007795
vt 0.446360 0.008027
vt 0.446222 0.114467
vt 0.275279 0.114235
vt 0.877759 0.425506
vt 0.250545 0.575985
vt 0.250723 0.702460
vt 0.008697 0.695163
vt 0.008520 0.576323
vt 0.837111 0.547205
vt 0.796407 0.425405
vt 0.837149 0.425428
vt 0.010902 0.274012
vt 0.820364 0.275161
vt 0.820201 0.399879
vt 0.010716 0.399351
vt 0.493275 0.426684
vt 0.493312 0.551042
vt 0.011966 0.548786
vt 0.011929 0.426820
vt 0.859730 0.973974
vt 0.895474 0.981619
vt 0.900879 0.997769
vt 0.985765 0.943557
vt 0.944198 0.957572
vt 0.945321 0.961195
vt 0.914127 0.994831
vt 0.933654 0.988349
vt 0.926710 0.967611
vt 0.927736 0.970678
vt 0.934777 0.991700
vt 0.998295 0.980163
vt 0.967817 0.798853
vt 0.667229 0.901580
vt 0.950968 0.782064
vt 0.950968 0.815701
vn 0.3628 -0.7315 -0.5772
vn -0.7315 -0.3631 0.5771
vn -0.7315 -0.3628 -0.5773
vn -0.3628 0.7316 -0.5772
vn 0.7315 0.3631 0.5771
vn 0.7315 0.3628 -0.5773
vn -0.3631 0.7314 0.5773
vn 0.3631 -0.7314 0.5773
vn -0.3643 0.7312 0.5768
vn -0.7316 -0.3634 0.5768
vn 0.3594 -0.7325 0.5781
vn -0.0009 0.0005 1.0000
vn -0.0015 0.0009 1.0000
vn 0.1894 -0.3812 0.9049
vn -0.0009 0.0003 1.0000
vn -0.0013 0.0004 1.0000
vn 0.8173 0.5763 0.0016
vn -0.3598 0.7322 -0.5783
vn -0.4422 0.8969 -0.0009
vn 0.3888 0.1962 -0.9002
vn 0.7271 0.3711 -0.5775
vn 0.3671 -0.7299 -0.5766
vn 0.1923 -0.3814 -0.9042
vn 0.4485 -0.8938 0.0009
vn 0.8970 0.4419 0.0014
vn 0.8920 0.4521 0.0015
vn -0.8957 -0.4447 0.0000
vn -0.3183 -0.9480 0.0000
vn 0.3650 -0.7302 0.5776
vn 0.7621 -0.5723 0.3029
vn 0.6233 -0.7820 0.0010
vn 0.9550 0.2966 0.0016
vn 0.3211 0.9470 0.0004
vn 0.9032 0.4293 0.0013
vn 0.7407 0.2172 0.6358
vn -0.3626 0.7364 0.5711
vn 0.7267 0.3781 0.5735
vn 0.9453 0.3263 0.0014
vn 0.8880 0.4599 0.0017
vn 0.4552 0.2367 -0.8584
vn 0.9913 0.1314 0.0017
vn 0.3661 -0.7302 -0.5768
vn 0.7323 0.3627 -0.5764
vn 0.1104 0.3195 -0.9411
vn 0.3845 0.1896 -0.9035
vn 0.4136 -0.6980 -0.5846
vn 0.1923 -0.3823 -0.9038
vn 0.2675 -0.9635 0.0006
vn -0.7078 -0.4160 -0.5710
vn 0.5088 -0.8609 0.0010
vn -0.9474 0.3180 -0.0349
vn -0.4453 0.8954 -0.0007
vn 0.7324 0.3601 0.5779
vn 0.9438 -0.3266 0.0500
vn 0.9451 -0.3269 0.0013
vn 0.8975 0.4411 0.0014
vn -0.3625 0.7311 -0.5780
vn 0.0681 -0.0232 -0.9974
vn 0.7341 0.3602 -0.5757
vn -0.8625 -0.5061 -0.0014
vn 0.3850 0.1990 0.9012
vn 0.4139 -0.6985 0.5838
vn 0.9482 -0.3176 0.0007
vn 1.0000 -0.0016 0.0020
vn -0.4657 0.6707 -0.5774
vn 0.6732 0.4627 0.5768
vn 0.6727 0.4629 -0.5772
vn -0.4413 0.4063 -0.8002
vn 0.4624 -0.6725 0.5779
vn 0.4623 -0.6727 -0.5777
vn -0.6705 -0.4655 -0.5777
vn -0.4655 0.6708 0.5774
vn -0.6708 -0.4653 0.5775
vn -0.0023 0.0004 1.0000
vn -0.0017 0.0006 1.0000
vn 0.3644 -0.7301 0.5781
vn 0.7410 0.3624 0.5654
vn -0.7069 -0.4180 0.5706
vn 0.4483 -0.8939 0.0008
vn 0.7332 0.3607 -0.5765
vn 0.4405 -0.8977 0.0000
vn 0.3211 0.9470 0.0002
vn 0.4471 -0.8945 0.0008
vn -0.7053 0.7089 -0.0011
vn 0.3212 0.9470 0.0007
vn -0.9480 0.3182 -0.0012
vn 0.9486 -0.3165 0.0030
usemtl Material.758
s 1
f 54/1/1 1/2/2 2/3/3
f 3/4/4 4/5/5 49/6/6
f 2/7/3 5/8/7 3/9/4
f 54/10/1 3/11/4 49/12/6
f 48/13/8 4/14/5 5/15/7
f 28/16/9 17/17/10 30/18/11
f 7/19/12 8/20/13 11/21/14
f 8/20/13 51/22/15 9/23/16
f 48/24/8 49/25/6 4/26/5
f 66/27/17 64/28/18 14/29/19
f 43/30/20 71/31/21 66/27/17
f 16/32/22 41/33/23 59/34/24
f 69/35/25 43/30/20 65/36/26
f 17/37/10 60/38/27 57/39/28
f 52/40/29 9/41/30 25/42/31
f 55/43/32 18/44/33 19/45/34
f 12/46/35 19/45/34 18/44/33
f 53/47/36 21/48/37 66/49/38
f 19/50/39 44/51/40 63/52/41
f 24/53/42 22/54/43 19/50/39
f 32/55/44 72/56/45 55/57/32
f 26/58/46 42/59/47 25/60/48
f 35/61/49 26/62/46 68/63/50
f 27/64/51 28/65/9 61/66/52
f 50/67/53 62/68/54 18/69/55
f 29/70/56 33/71/57 61/72/52
f 44/51/58 34/73/59 29/70/56
f 14/29/19 35/61/49 38/74/60
f 21/75/37 67/76/61 65/77/26
f 25/78/31 9/79/30 68/80/50
f 9/79/30 37/81/62 68/80/50
f 8/82/63 58/83/64 37/81/62
f 39/84/65 73/85/66 40/86/67
f 32/87/68 44/88/40 41/89/23
f 33/90/57 34/91/59 44/88/58
f 40/92/67 47/93/69 46/94/70
f 45/95/71 70/96/72 39/97/65
f 74/98/73 46/99/70 47/100/69
f 39/101/65 40/102/67 46/103/70
f 70/96/72 47/104/69 73/105/66
f 54/1/1 48/106/8 1/2/2
f 3/4/4 5/15/7 4/5/5
f 2/7/3 1/107/2 5/8/7
f 54/10/1 2/108/3 3/11/4
f 1/2/2 48/13/8 5/15/7
f 50/109/53 28/16/9 30/18/11
f 7/110/12 11/111/14 6/112/74
f 7/19/12 51/113/15 8/20/13
f 9/23/30 52/114/29 8/20/13
f 52/114/29 11/111/14 8/20/13
f 11/111/14 12/115/35 10/116/75
f 11/111/14 10/116/75 6/112/74
f 11/111/14 20/117/76 12/115/35
f 67/118/61 37/119/62 36/120/77
f 21/121/37 53/122/36 67/118/61
f 13/123/78 37/119/62 67/118/61
f 13/123/78 67/118/61 53/122/36
f 48/24/8 54/124/1 49/25/6
f 66/27/17 71/31/21 64/28/18
f 65/36/26 43/30/20 66/27/38
f 15/125/79 25/60/48 42/59/47
f 15/125/79 42/59/47 16/32/22
f 15/125/79 16/32/22 59/34/24
f 69/35/25 55/57/32 72/56/45
f 69/35/25 72/56/45 56/126/80
f 69/35/25 56/126/80 43/30/20
f 30/127/11 17/37/10 57/39/81
f 59/128/24 11/129/14 52/130/29
f 59/128/24 52/130/29 15/131/79
f 15/132/79 52/40/29 25/42/48
f 55/43/32 58/133/64 18/44/33
f 58/133/64 12/46/82 18/44/33
f 19/134/34 12/135/35 20/136/76
f 19/134/34 20/136/76 23/137/83
f 14/138/19 53/47/36 66/49/17
f 19/50/39 22/54/43 44/51/40
f 23/139/83 24/53/42 19/50/34
f 23/139/83 59/34/24 41/33/23
f 23/139/83 41/33/23 24/53/42
f 31/140/84 32/55/68 55/57/85
f 68/141/50 26/58/46 25/60/31
f 38/74/60 35/61/49 68/63/50
f 31/142/84 27/64/86 61/66/52
f 27/143/51 60/144/27 17/145/10
f 27/146/51 17/147/10 28/148/9
f 29/149/56 61/150/52 28/151/9
f 29/149/56 28/151/9 50/152/53
f 30/153/11 57/154/81 62/155/54
f 30/156/11 62/157/54 50/158/53
f 18/69/55 63/159/41 29/160/56
f 29/160/56 50/67/53 18/69/55
f 31/140/84 61/72/52 33/71/57
f 31/140/84 33/71/57 32/55/68
f 29/70/56 34/73/59 33/71/57
f 63/52/41 44/51/40 29/70/56
f 59/161/24 23/162/83 20/163/76
f 59/161/24 20/163/76 11/164/14
f 14/29/19 64/28/18 35/61/49
f 66/165/38 21/75/37 65/77/26
f 65/166/26 67/167/61 36/168/77
f 65/166/26 36/168/77 69/169/25
f 9/79/30 8/82/87 37/81/62
f 37/81/62 58/83/64 36/170/77
f 58/83/64 55/171/32 69/172/25
f 58/83/64 69/172/25 36/170/77
f 38/173/60 68/174/50 37/175/62
f 38/173/60 37/175/62 13/176/78
f 38/177/60 13/178/78 53/179/36
f 38/177/60 53/179/36 14/180/19
f 39/84/65 70/181/72 73/85/66
f 44/88/40 22/182/43 24/183/42
f 64/184/18 71/185/21 43/186/20
f 16/187/22 42/188/47 41/89/23
f 56/189/80 72/190/45 43/186/20
f 44/88/40 24/183/42 41/89/23
f 42/188/47 72/190/45 32/87/44
f 43/186/20 72/190/45 42/188/47
f 43/186/20 42/188/47 26/191/46
f 43/186/20 26/191/46 35/192/49
f 43/186/20 35/192/49 64/184/18
f 42/188/47 32/87/44 41/89/23
f 32/87/68 33/90/57 44/88/40
f 40/92/67 73/105/66 47/93/69
f 45/95/71 74/193/73 70/96/72
f 74/98/73 45/194/71 46/99/70
f 45/195/71 39/101/65 46/103/70
f 70/96/72 74/196/73 47/104/69
