# Blender v2.79 (sub 0) OBJ File: ''
# www.blender.org
mtllib amk_blk700_building.mtl
o polygon.849
v -611.947021 821.687012 20.512266
v -611.947021 821.687012 19.512266
v -611.929016 821.539001 19.512266
v -611.929016 821.539001 20.512266
v -675.473022 847.018005 21.141275
v -675.323975 847.036011 22.141275
v -675.291016 845.528992 21.141275
v -675.323975 847.036011 21.141275
v -675.142029 845.546997 21.141275
v -675.291016 845.528992 22.141275
v -675.142029 845.546997 22.141275
v -666.159973 835.250977 31.799271
v -659.979004 826.322998 29.345270
v -664.872986 824.732971 40.210266
v -629.046021 839.789001 31.799274
v -622.758972 830.903015 33.055267
v -623.346008 835.697021 32.422276
v -634.168030 839.163025 31.799274
v -656.133972 836.476990 31.799271
v -654.966003 826.940002 33.055267
v -621.562988 824.189026 33.055267
v -615.296997 836.687012 33.055275
v -620.862976 818.481018 35.353268
v -629.476013 823.215027 35.353268
v -617.250000 852.625000 15.870278
v -675.455994 845.508972 31.799274
v -617.250000 852.625000 31.799278
v -664.872986 824.732971 33.055267
v -672.793030 823.758972 33.055267
v -664.992004 825.705994 33.055267
v -664.992004 825.705994 29.345270
v -665.578979 830.500000 31.799271
v -655.552979 831.734009 32.424274
v -671.385986 812.265015 15.370265
v -613.181030 819.427002 15.870267
v -620.862976 818.481018 15.870267
v -655.552979 831.734009 33.055275
v -659.979004 826.322998 33.055267
v -620.862976 818.481018 33.055267
v -627.880005 830.273010 33.055267
v -623.346008 835.697021 31.799271
v -615.296997 836.687012 31.799271
v -613.435974 821.505005 20.512266
v -672.793030 823.758972 15.870269
v -671.385986 812.265015 33.055267
v -628.778015 817.507019 15.870267
v -613.181030 819.427002 15.370267
v -613.418030 821.356018 19.512266
v -675.473022 847.018005 22.141275
v -672.793030 823.758972 40.210266
v -661.146973 835.864014 31.799271
v -628.778015 817.507019 33.055267
v -613.181030 819.427002 33.055267
v -623.346008 835.697021 33.055275
v -633.000977 829.642029 29.345270
v -655.552979 831.734009 31.799271
v -633.588989 834.437012 31.799271
v -665.578979 830.500000 40.210266
v -675.455994 845.508972 15.370275
v -617.250000 852.625000 15.370278
v -621.562988 824.189026 35.353268
v -629.476013 823.215027 33.055267
v -627.880005 830.273010 29.345270
v -633.000977 829.642029 33.055267
v -633.588989 834.437012 33.055275
v -623.924011 840.414978 31.799274
v -613.435974 821.505005 19.512266
v -613.418030 821.356018 20.512266
v -675.455994 845.508972 15.870275
v -673.499023 829.526001 31.799271
v -673.499023 829.526001 15.870271
v -673.499023 829.526001 40.210266
v -671.385986 812.265015 15.870265
v -628.778015 817.507019 35.353268
vt -2.229177 0.928922
vt -2.330538 0.989841
vt -2.330538 0.928922
vt -0.056887 0.944925
vt -0.056913 0.945127
vt -0.056913 0.944925
vt 1.771089 0.928352
vt 1.669730 0.989271
vt 1.669730 0.928352
vt -0.059737 0.944386
vt -0.059997 0.944423
vt -0.060001 0.944393
vt -0.048653 0.944393
vt -0.048917 0.944386
vt -0.048914 0.944356
vt -1.329747 0.988342
vt -1.228387 0.927422
vt -1.228387 0.988342
vt -0.049220 0.945255
vt -0.049246 0.945457
vt -0.049246 0.945255
vt 1.669419 0.988916
vt 1.770779 0.927996
vt 1.770779 0.988916
vt -0.019120 0.914423
vt -0.019158 0.914802
vt -0.019158 0.914423
vt -0.059758 0.949555
vt -0.059752 0.949250
vt -0.059726 0.949254
vt 0.398177 -0.106895
vt 0.403486 -0.150237
vt 0.463011 -0.142907
vt 0.328102 -0.159223
vt 0.332511 -0.195173
vt 0.370186 -0.190564
vt 0.072674 -0.102828
vt 0.025589 -0.196769
vt 0.081665 -0.153289
vt 0.067414 -0.059935
vt 0.132148 -0.095505
vt 0.126894 -0.052611
vt 0.478142 -0.260172
vt 0.332926 -0.192921
vt 0.167836 -0.212936
vt -0.492817 0.763209
vt -0.019127 0.891234
vt -0.492817 0.891234
vt -0.020466 0.813611
vt -0.021678 0.805574
vt -0.021678 0.813611
vt -0.058065 0.947667
vt -0.059463 0.949116
vt -0.059463 0.947667
vt -0.058043 0.947539
vt -0.058043 0.947667
vt -0.059463 0.947667
vt -0.050589 0.946916
vt -0.051473 0.947667
vt -0.051473 0.946916
vt -0.051567 0.947667
vt -0.051567 0.946916
vt -0.050589 0.947413
vt -0.049191 0.949116
vt -0.049191 0.947413
vt -0.052359 0.947539
vt -0.052359 0.947667
vt -0.056235 0.947667
vt -0.674229 0.595090
vt -0.503991 0.348983
vt -0.503991 0.595090
vt -0.156198 -0.066364
vt -0.156198 -0.066174
vt -0.160593 -0.066174
vt -0.191281 -0.066174
vt -0.168911 -0.066364
vt -0.168911 -0.066174
vt -0.203976 -0.066174
vt -0.191281 -0.066364
vt -0.168913 -0.066364
vt -0.168913 -0.066174
vt -0.171866 -0.066174
vt -0.082197 0.721517
vt -0.019918 0.581997
vt -0.019918 0.721517
vt -0.052941 0.947667
vt -0.054105 0.948132
vt -0.054105 0.947667
vt -0.056710 0.947667
vt -0.058107 0.948132
vt -0.058107 0.947667
vt -0.055546 0.947667
vt -0.056710 0.948132
vt -0.056235 0.946916
vt -0.057138 0.947667
vt -0.057138 0.946916
vt -0.055257 0.947413
vt -0.056235 0.947667
vt -0.496644 0.320351
vt -0.001961 0.320351
vt -0.239447 0.548920
vt -0.467889 0.372616
vt -0.465670 0.386966
vt -0.465670 0.372616
vt -0.759642 0.348983
vt -0.996365 0.577102
vt -0.996365 0.348983
vt -0.759642 0.576192
vt -0.678172 0.348983
vt -0.146360 0.581997
vt -0.491796 0.721517
vt -0.491796 0.581997
vt -0.146360 0.720633
vt -0.083406 0.581997
vt -0.020466 0.805574
vt -0.467889 0.386966
vt -0.194846 0.909681
vt -0.209678 0.901222
vt -0.194847 0.901210
vt -2.229177 0.989841
vt -0.056887 0.945127
vt 1.771090 0.989271
vt -0.059740 0.944356
vt -0.048657 0.944423
vt -1.329747 0.927422
vt -0.049220 0.945457
vt 1.669419 0.927996
vt -0.019120 0.914802
vt -0.059784 0.949551
vt 0.088340 -0.215802
vt 0.117006 -0.137178
vt 0.079327 -0.141759
vt 0.126021 -0.211192
vt 0.457702 -0.099565
vt 0.120086 -0.147894
vt 0.086037 -0.188959
vt 0.128905 -0.220028
vt 0.086028 -0.188896
vt 0.120092 -0.147844
vt 0.081599 -0.152554
vt 0.158362 -0.141506
vt 0.128926 -0.220070
vt 0.167420 -0.215360
vt 0.323645 -0.122886
vt 0.323677 -0.122949
vt 0.370166 -0.190663
vt 0.361358 -0.118339
vt 0.447121 -0.013180
vt 0.126894 -0.052611
vt 0.323718 -0.123484
vt 0.132148 -0.095505
vt 0.398177 -0.106895
vt 0.457702 -0.099565
vt 0.361396 -0.118845
vt 0.399073 -0.114206
vt 0.163063 -0.179841
vt 0.328137 -0.159515
vt 0.158644 -0.143810
vt 0.067414 -0.059935
vt 0.009679 -0.067044
vt 0.120154 -0.148550
vt 0.086083 -0.189320
vt 0.072674 -0.102828
vt 0.090432 -0.224780
vt 0.123044 -0.211838
vt 0.161853 -0.137456
vt 0.123072 -0.137459
vt 0.463428 -0.141142
vt 0.403903 -0.148405
vt 0.408276 -0.183786
vt 0.086500 -0.187132
vt 0.026006 -0.194514
vt 0.090849 -0.222270
vt 0.040696 -0.313208
vt 0.129343 -0.217603
vt 0.370601 -0.188353
vt 0.328554 -0.157598
vt 0.163480 -0.177740
vt -0.019127 0.763209
vt -0.058065 0.949116
vt -0.054445 0.947539
vt -0.053599 0.947667
vt -0.054445 0.947667
vt -0.059463 0.947413
vt -0.058043 0.947413
vt -0.050589 0.947667
vt -0.050589 0.949116
vt -0.051765 0.949116
vt -0.051765 0.947667
vt -0.049620 0.947413
vt -0.056235 0.947413
vt -0.052359 0.947413
vt -0.674229 0.348983
vt -0.162799 -0.066174
vt -0.203976 -0.066364
vt -0.174908 -0.066174
vt -0.191286 -0.066174
vt -0.191286 -0.066364
vt -0.053374 0.947413
vt -0.054211 0.947539
vt -0.054211 0.947413
vt -0.054443 0.947539
vt -0.053597 0.947667
vt -0.054443 0.947667
vt -0.055280 0.947413
vt -0.053596 0.946916
vt -0.053596 0.947667
vt -0.082197 0.581997
vt -0.052941 0.948132
vt -0.055546 0.948132
vt -0.055278 0.947413
vt -0.053599 0.946916
vt -0.053599 0.947667
vt -0.055257 0.947667
vt -0.054293 0.947413
vt -0.054208 0.947413
vt -0.053376 0.947413
vt -0.054208 0.947539
vt -0.001961 0.548920
vt -0.239447 0.566943
vt -0.496644 0.566943
vt -0.759642 0.577102
vt -0.678172 0.594107
vt -0.678172 0.696165
vt -0.759642 0.696165
vt -0.146360 0.721517
vt -0.083406 0.720633
vt -0.083406 0.739172
vt -0.146360 0.739172
vt -0.209676 0.909681
vn -0.1211 0.9906 -0.0630
vn 0.5031 0.6432 0.5772
vn 0.5031 0.6430 -0.5775
vn 0.6432 -0.5029 0.5775
vn 0.6431 -0.5031 -0.5773
vn 0.0863 -0.7024 0.7066
vn 0.0863 -0.7024 -0.7066
vn -0.0858 0.7015 0.7075
vn -0.6428 0.5035 0.5773
vn -0.7016 -0.0858 -0.7074
vn -0.7016 -0.0858 0.7074
vn -0.6428 0.5035 -0.5773
vn 0.5035 0.6427 0.5774
vn 0.5035 0.6427 -0.5774
vn 0.7022 0.0858 0.7068
vn 0.7022 0.0858 -0.7068
vn 0.6433 -0.5027 0.5774
vn 0.5028 0.6434 0.5773
vn -0.6433 0.5027 0.5774
vn -0.0918 0.7459 0.6597
vn 0.0166 0.0348 0.9993
vn -0.0569 -0.0368 0.9977
vn 0.2624 0.3359 0.9046
vn 0.5027 0.6434 0.5773
vn -0.0246 0.0298 0.9993
vn 0.6434 -0.5026 0.5774
vn -0.5028 -0.6434 0.5773
vn -0.6432 0.5030 0.5773
vn 0.0473 -0.0569 0.9973
vn 0.6160 0.7878 0.0000
vn 0.5029 0.6432 0.5774
vn 0.1199 -0.9928 0.0000
vn 0.1200 -0.9928 0.0000
vn 0.3361 -0.2627 0.9045
vn -0.8611 -0.4092 0.3017
vn -0.0917 0.7460 0.6596
vn -0.6434 0.5027 0.5774
vn 0.4995 0.5712 0.6514
vn -0.3152 0.3035 0.8992
vn -0.6227 0.4333 0.6515
vn 0.8611 0.4092 0.3017
vn 0.8611 0.4091 0.3018
vn -0.9345 0.1893 0.3014
vn 0.5027 0.6435 0.5773
vn -0.6157 -0.7880 0.0000
vn -0.5027 -0.6434 0.5773
vn -0.5031 -0.6429 -0.5776
vn -0.9926 -0.1215 0.0000
vn -0.6433 0.5030 -0.5772
vn -0.7877 0.6160 0.0000
vn 0.7881 -0.6156 0.0000
vn 0.5029 0.6432 -0.5774
vn 0.6438 -0.5029 -0.5767
vn 0.1225 -0.9925 -0.0007
vn 0.4097 -0.8610 0.3014
vn -0.3361 0.2627 0.9044
vn -0.1888 -0.9345 0.3017
vn 0.4994 0.5711 0.6515
vn -0.3152 0.3036 0.8992
vn -0.6228 0.4331 0.6517
vn 0.8611 0.4093 0.3017
vn 0.8611 0.4093 0.3016
vn -0.9928 -0.1196 0.0000
vn -0.9926 -0.1215 0.0002
vn 0.1216 -0.9926 -0.0007
vn -0.1200 0.9928 0.0000
vn -0.1199 0.9928 0.0000
vn 0.9928 0.1196 0.0000
vn 0.0000 0.0000 -1.0000
vn 0.0472 -0.0568 0.9973
vn -0.0570 -0.0369 0.9977
vn -0.0245 0.0297 0.9993
vn 0.0167 0.0348 0.9993
usemtl Material.850
s 1
f 67/1/1 1/2/2 2/3/3
f 2/4/3 4/5/4 3/6/5
f 3/7/5 68/8/6 48/9/7
f 67/10/1 2/11/3 3/12/5
f 4/13/4 43/14/8 68/15/6
f 49/16/9 7/17/10 10/18/11
f 5/19/12 6/20/13 8/21/14
f 11/22/15 8/23/14 6/24/13
f 7/25/10 8/26/14 9/27/16
f 6/28/13 10/29/11 11/30/15
f 14/31/17 58/32/18 72/33/19
f 33/34/20 19/35/21 51/36/22
f 21/37/23 22/38/24 16/39/25
f 23/40/26 24/41/19 74/42/27
f 26/43/28 19/44/21 18/45/29
f 25/46/30 26/47/28 27/48/31
f 10/49/32 9/50/33 11/51/32
f 28/52/34 50/53/27 29/54/35
f 17/55/36 54/56/37 22/57/24
f 31/58/38 38/59/39 13/60/40
f 30/61/41 31/62/38 32/63/42
f 72/64/19 32/63/42 70/65/43
f 33/66/20 37/67/37 65/68/44
f 29/69/35 73/70/45 45/71/46
f 34/72/47 73/73/45 44/74/48
f 25/75/30 59/76/49 69/77/50
f 35/78/51 60/79/52 25/75/30
f 47/80/53 35/81/51 36/82/54
f 39/83/55 35/84/51 53/85/26
f 21/86/23 23/87/26 39/88/55
f 62/89/56 61/90/44 21/91/23
f 52/92/57 24/93/19 62/89/56
f 55/94/58 40/95/59 63/96/60
f 57/97/61 64/98/23 55/94/58
f 35/99/51 25/100/30 42/101/62
f 48/102/63 43/103/63 67/104/63
f 71/105/64 26/106/28 69/107/50
f 70/108/43 71/105/64 44/109/48
f 46/110/65 45/111/46 73/112/45
f 52/113/57 46/110/65 36/114/54
f 11/51/66 7/115/67 10/49/66
f 67/104/68 68/116/68 48/102/68
f 59/117/49 47/118/53 34/119/47
f 67/1/1 43/120/8 1/2/2
f 2/4/3 1/121/2 4/5/4
f 3/7/5 4/122/4 68/8/6
f 48/123/7 67/10/69 3/12/5
f 4/13/4 1/124/2 43/14/8
f 49/16/9 5/125/12 7/17/10
f 5/19/12 49/126/9 6/20/13
f 11/22/15 9/127/16 8/23/14
f 7/25/10 5/128/12 8/26/14
f 6/28/13 49/129/9 10/29/11
f 31/130/38 51/131/22 12/132/70
f 51/131/22 31/130/38 13/133/40
f 50/134/27 14/31/17 72/33/19
f 40/135/59 17/136/36 15/137/71
f 17/138/36 40/139/59 16/140/25
f 55/141/58 15/142/71 18/143/29
f 20/144/72 33/34/20 51/36/22
f 20/145/72 51/146/22 38/147/39
f 45/148/46 52/149/57 20/150/72
f 52/149/57 62/151/56 20/150/72
f 28/152/34 29/153/35 45/148/46
f 38/154/39 30/155/41 28/152/34
f 65/156/44 37/157/37 64/158/23
f 37/157/37 20/150/72 64/158/23
f 20/150/72 38/154/39 45/148/46
f 38/154/39 28/152/34 45/148/46
f 21/37/23 39/159/55 53/160/26
f 62/151/56 21/37/23 40/161/59
f 20/150/72 62/151/56 64/158/23
f 64/158/23 62/151/56 40/161/59
f 21/37/23 53/160/26 22/38/24
f 22/38/24 54/162/37 16/39/25
f 16/39/25 40/161/59 21/37/23
f 23/40/26 61/163/44 24/41/19
f 15/142/71 17/136/36 66/164/73
f 15/165/71 55/166/58 63/167/60
f 70/168/43 32/169/42 12/170/70
f 26/43/28 70/168/43 12/170/70
f 41/171/24 42/172/62 66/173/73
f 42/172/62 27/174/31 66/173/73
f 18/45/29 15/175/71 27/174/31
f 15/175/71 66/173/73 27/174/31
f 27/174/31 26/43/28 18/45/29
f 26/43/28 12/170/70 51/176/22
f 26/43/28 51/176/22 19/44/21
f 56/177/24 57/178/61 19/44/21
f 57/178/61 18/45/29 19/44/21
f 25/46/30 69/179/50 26/47/28
f 10/49/32 7/115/33 9/50/33
f 28/52/34 14/180/17 50/53/27
f 17/181/36 16/182/25 54/183/37
f 22/57/24 42/184/62 17/55/36
f 42/184/62 41/185/24 17/55/36
f 31/58/38 30/186/41 38/59/39
f 58/187/18 14/188/17 30/61/41
f 14/188/17 28/189/34 30/61/41
f 31/62/38 12/190/70 32/63/42
f 32/63/42 58/187/18 30/61/41
f 72/64/19 58/187/18 32/63/42
f 65/68/44 57/191/61 33/66/20
f 57/191/61 56/192/24 33/66/20
f 29/69/35 44/193/48 73/70/45
f 44/74/48 71/194/64 34/72/47
f 71/194/64 69/77/50 59/76/49
f 34/72/47 71/194/64 59/76/49
f 25/75/30 60/79/52 59/76/49
f 35/78/51 47/195/53 60/79/52
f 36/82/54 46/196/65 47/80/53
f 46/196/65 73/197/45 34/198/47
f 47/80/53 46/196/65 34/198/47
f 19/199/21 33/200/20 56/201/24
f 33/202/20 20/203/72 37/204/37
f 51/205/22 13/206/40 38/207/39
f 39/83/55 36/208/54 35/84/51
f 21/86/23 61/209/44 23/87/26
f 62/89/56 24/93/19 61/90/44
f 52/92/57 74/210/27 24/93/19
f 15/211/71 63/212/60 40/213/59
f 55/94/58 64/98/23 40/95/59
f 57/97/61 65/214/44 64/98/23
f 55/94/58 18/215/29 57/97/61
f 41/216/24 66/217/73 17/218/36
f 25/100/30 27/219/31 42/101/62
f 42/101/62 22/220/24 53/221/26
f 53/221/26 35/99/51 42/101/62
f 48/102/63 68/116/63 43/103/63
f 71/105/64 70/222/43 26/106/28
f 44/109/48 29/223/35 70/108/43
f 29/223/35 50/224/27 72/225/19
f 70/108/43 29/223/35 72/225/19
f 46/110/65 52/226/57 45/111/46
f 36/114/54 39/227/55 52/113/57
f 39/227/55 23/228/26 52/113/57
f 23/228/26 74/229/27 52/113/57
f 11/51/66 9/50/67 7/115/67
f 67/104/68 43/103/68 68/116/68
f 59/117/49 60/230/52 47/118/53
